<svg width="37" height="43" viewBox="0 0 37 43" fill="none" xmlns="http://www.w3.org/2000/svg">
<g style="mix-blend-mode:darken">
<path d="M2.87844 40.8838V35.5928H5.78762V36.1816H3.53762V40.3037H3.67824C4.38723 40.3037 5.21047 40.2451 6.14797 40.1279V40.6816C5.105 40.8164 4.09133 40.8838 3.10695 40.8838H2.87844ZM6.58742 42.4307V35.0039H7.20266V38.0713H8.55617V34.7754H9.21535V42.791H8.55617V38.7129H7.20266V42.4307H6.58742ZM11.8485 35.8037V35.1973H14.6873V35.8037H11.8485ZM10.6268 41.2441C10.9491 41.0742 11.2743 40.8486 11.6024 40.5674C11.9305 40.2803 12.2293 39.9229 12.4989 39.4951C12.7684 39.0615 12.9032 38.6426 12.9032 38.2383V37.4912H10.9432V36.876H15.4871V37.4912H13.5887V38.2295C13.5887 38.5928 13.7088 38.9736 13.9491 39.3721C14.1952 39.7705 14.4588 40.1016 14.7401 40.3652C15.0272 40.6289 15.3114 40.8486 15.5926 41.0244L15.1532 41.4727C14.8192 41.2734 14.4618 40.9863 14.0809 40.6113C13.7059 40.2363 13.4305 39.8584 13.2547 39.4775C13.0907 39.8525 12.786 40.2627 12.3407 40.708C11.9012 41.1475 11.4823 41.4785 11.0838 41.7012L10.6268 41.2441ZM15.0301 39.1787V38.5371H16.8055V34.7754H17.4823V42.791H16.8055V39.1787H15.0301ZM19.7463 36.1201V35.4961H25.6613C25.6613 36.1465 25.6144 36.9141 25.5207 37.7988C25.4328 38.6777 25.3185 39.4248 25.1779 40.04H24.4923C24.6388 39.4482 24.756 38.7598 24.8439 37.9746C24.9318 37.1895 24.9757 36.5713 24.9757 36.1201H19.7463ZM18.7179 41.7627V41.1738H20.6515V38.1064H21.3195V41.1738H22.8312V38.1064H23.4992V41.1738H26.5578V41.7627H18.7179ZM27.9868 36.3223C27.9868 35.8594 28.271 35.5078 28.8393 35.2676C29.4077 35.0215 30.1225 34.8984 30.9839 34.8984C31.5288 34.8984 32.021 34.9482 32.4604 35.0479C32.8999 35.1475 33.2632 35.3086 33.5503 35.5312C33.8432 35.748 33.9897 36.0117 33.9897 36.3223C33.9897 36.7852 33.6997 37.1396 33.1196 37.3857C32.5454 37.626 31.8335 37.7461 30.9839 37.7461C30.1108 37.7461 29.393 37.626 28.8305 37.3857C28.268 37.1396 27.9868 36.7852 27.9868 36.3223ZM28.7339 36.3223C28.7339 36.6094 28.9565 36.8262 29.4018 36.9727C29.853 37.1191 30.3804 37.1924 30.9839 37.1924C31.605 37.1924 32.1352 37.1191 32.5747 36.9727C33.02 36.8203 33.2427 36.6035 33.2427 36.3223C33.2427 36.041 33.02 35.8242 32.5747 35.6719C32.1294 35.5195 31.5991 35.4434 30.9839 35.4434C30.6206 35.4434 30.2749 35.4727 29.9468 35.5312C29.6186 35.5898 29.3345 35.6895 29.0942 35.8301C28.854 35.9648 28.7339 36.1289 28.7339 36.3223ZM27.0552 39.1963V38.6338H34.8862V39.1963H32.7241V40.6201H32.0737V39.1963H29.8764V40.6201H29.2261V39.1963H27.0552ZM28.1011 41.0332V40.4707H33.647V42.8613H32.9702V41.0332H28.1011Z" fill="black"/>
</g>
<path fill-rule="evenodd" clip-rule="evenodd" d="M24.8016 24.9964C27.5669 25.1042 29.892 22.7951 30 19.8337V12.1663C29.892 9.205 27.5669 6.89581 24.8016 7.00363H11.1984C8.43316 6.89581 6.10798 9.205 6 12.1663V19.8337C6.10798 22.7951 8.43316 25.1042 11.1984 24.9964H24.8016Z" stroke="#FF4F4D" stroke-opacity="0.8" stroke-width="1.8" stroke-linecap="round" stroke-linejoin="round"/>
<path d="M23 15.5L15 20V11L23 15.5Z" fill="#FF4F4D" fill-opacity="0.8"/>
</svg>
