<svg width="63" height="63" viewBox="0 0 63 63" fill="none" xmlns="http://www.w3.org/2000/svg">
<g filter="url(#filter0_d_2_756)">
<g filter="url(#filter1_d_2_756)">
<circle cx="31.5" cy="27.5" r="27.5" fill="white"/>
<circle cx="31.5" cy="27.5" r="26.5" stroke="#FF4F4D" stroke-width="2"/>
</g>
<g clip-path="url(#clip0_2_756)">
<path fill-rule="evenodd" clip-rule="evenodd" d="M44.625 14.338L42.6004 20.3113L46.3707 25.3623L40.0661 25.2829L36.4255 30.4289L34.5539 24.4091L28.536 22.5394L33.682 18.8969L33.6026 12.5923L38.6517 16.3627L44.625 14.338Z" fill="#FF4F4D"/>
<path fill-rule="evenodd" clip-rule="evenodd" d="M19.5872 42.0972C18.8316 42.8547 17.8008 43.0504 17.2854 42.535L16.4988 41.7504C15.9834 41.235 16.1811 40.2062 16.9386 39.4486L36.9007 19.4865C37.6582 18.729 38.6871 18.5333 39.2024 19.0467L39.9891 19.8333C40.5044 20.3487 40.3087 21.3775 39.5492 22.1351L19.5872 42.0972Z" fill="#FF4F4D"/>
<path fill-rule="evenodd" clip-rule="evenodd" d="M42.1774 39.0266C42.1774 39.0266 42.4913 36.9748 40.9956 35.4945C39.4979 34.0182 37.3724 34.2817 37.3724 34.2817C37.3724 34.2817 39.8253 34.3204 41.044 33.1134C42.2666 31.9063 42.1794 29.5348 42.1794 29.5348C42.1794 29.5348 42.4371 32.1504 43.4077 33.1134C44.3862 34.0744 46.9863 34.2817 46.9863 34.2817C46.9863 34.2817 44.5431 34.4793 43.462 35.5449C42.377 36.6164 42.1774 39.0266 42.1774 39.0266Z" fill="#FF4F4D"/>
<path fill-rule="evenodd" clip-rule="evenodd" d="M32.4899 42.9016C32.4899 42.9016 32.8038 40.8498 31.3081 39.3695C29.8104 37.8932 27.6849 38.1567 27.6849 38.1567C27.6849 38.1567 30.1378 38.1954 31.3565 36.9884C32.5791 35.7813 32.4919 33.4098 32.4919 33.4098C32.4919 33.4098 32.7496 36.0254 33.7202 36.9884C34.6987 37.9494 37.2988 38.1567 37.2988 38.1567C37.2988 38.1567 34.8556 38.3543 33.7745 39.4199C32.6895 40.4914 32.4899 42.9016 32.4899 42.9016Z" fill="#FF4F4D"/>
<path fill-rule="evenodd" clip-rule="evenodd" d="M22.8024 21.5891C22.8024 21.5891 23.1163 19.5373 21.6206 18.057C20.1229 16.5807 17.9974 16.8442 17.9974 16.8442C17.9974 16.8442 20.4503 16.8829 21.669 15.6759C22.8916 14.4688 22.8044 12.0973 22.8044 12.0973C22.8044 12.0973 23.0621 14.7129 24.0327 15.6759C25.0112 16.6369 27.6113 16.8442 27.6113 16.8442C27.6113 16.8442 25.1681 17.0418 24.087 18.1074C23.002 19.1789 22.8024 21.5891 22.8024 21.5891Z" fill="#FF4F4D"/>
</g>
</g>
<defs>
<filter id="filter0_d_2_756" x="0" y="0" width="63" height="63" filterUnits="userSpaceOnUse" color-interpolation-filters="sRGB">
<feFlood flood-opacity="0" result="BackgroundImageFix"/>
<feColorMatrix in="SourceAlpha" type="matrix" values="0 0 0 0 0 0 0 0 0 0 0 0 0 0 0 0 0 0 127 0" result="hardAlpha"/>
<feOffset dy="4"/>
<feGaussianBlur stdDeviation="2"/>
<feComposite in2="hardAlpha" operator="out"/>
<feColorMatrix type="matrix" values="0 0 0 0 0 0 0 0 0 0 0 0 0 0 0 0 0 0 0.25 0"/>
<feBlend mode="normal" in2="BackgroundImageFix" result="effect1_dropShadow_2_756"/>
<feBlend mode="normal" in="SourceGraphic" in2="effect1_dropShadow_2_756" result="shape"/>
</filter>
<filter id="filter1_d_2_756" x="3" y="0" width="57" height="57" filterUnits="userSpaceOnUse" color-interpolation-filters="sRGB">
<feFlood flood-opacity="0" result="BackgroundImageFix"/>
<feColorMatrix in="SourceAlpha" type="matrix" values="0 0 0 0 0 0 0 0 0 0 0 0 0 0 0 0 0 0 127 0" result="hardAlpha"/>
<feOffset dy="1"/>
<feGaussianBlur stdDeviation="0.5"/>
<feComposite in2="hardAlpha" operator="out"/>
<feColorMatrix type="matrix" values="0 0 0 0 0 0 0 0 0 0 0 0 0 0 0 0 0 0 0.25 0"/>
<feBlend mode="normal" in2="BackgroundImageFix" result="effect1_dropShadow_2_756"/>
<feBlend mode="normal" in="SourceGraphic" in2="effect1_dropShadow_2_756" result="shape"/>
</filter>
<clipPath id="clip0_2_756">
<rect width="31" height="31" fill="white" transform="translate(16 12)"/>
</clipPath>
</defs>
</svg>
